<svg width="32" height="32" viewBox="0 0 64 64" fill="none" xmlns="http://www.w3.org/2000/svg">
  <defs>
    <radialGradient id="b" cx="0.36" cy="0.3" r="1.1" gradientUnits="objectBoundingBox">
      <stop offset="0%" stop-color="#191440"/>
      <stop offset="52%" stop-color="#0d0b24"/>
      <stop offset="100%" stop-color="#070514"/>
    </radialGradient>
    <linearGradient id="r" x1="12" y1="8" x2="54" y2="58" gradientUnits="userSpaceOnUse">
      <stop offset="0%" stop-color="#ffe9a8"/>
      <stop offset="48%" stop-color="#c49a52"/>
      <stop offset="100%" stop-color="#7c6cf0"/>
    </linearGradient>
    <linearGradient id="g" x1="20" y1="18" x2="50" y2="50" gradientUnits="userSpaceOnUse">
      <stop offset="0%" stop-color="#fff0c2"/>
      <stop offset="48%" stop-color="#f0c356"/>
      <stop offset="100%" stop-color="#cf8f2c"/>
    </linearGradient>
    <linearGradient id="s" x1="32" y1="24" x2="40.5" y2="33" gradientUnits="userSpaceOnUse">
      <stop offset="0%" stop-color="#a89bff"/>
      <stop offset="100%" stop-color="#5b4bd6"/>
    </linearGradient>
    <linearGradient id="c" x1="34" y1="26" x2="38" y2="30" gradientUnits="userSpaceOnUse">
      <stop offset="0%" stop-color="#8cf2e2"/>
      <stop offset="100%" stop-color="#2dd4bf"/>
    </linearGradient>
    <clipPath id="cp"><circle cx="32" cy="32" r="29.4"/></clipPath>
    <mask id="cm">
      <rect width="64" height="64" fill="white"/>
      <circle cx="37" cy="27.5" r="15" fill="black"/>
    </mask>
  </defs>
  <g clip-path="url(#cp)">
    <circle cx="32" cy="32" r="30" fill="url(#b)"/>
    <ellipse cx="30" cy="10" rx="21" ry="11" fill="#ffffff" opacity="0.05"/>
  </g>
  <circle cx="30.5" cy="32" r="19.5" fill="url(#g)" mask="url(#cm)"/>
  <path d="M36 23.2 l4.6 2.7 v4.5 c0 3.2 -2.2 5.6 -4.6 6.9 -2.4 -1.3 -4.6 -3.7 -4.6 -6.9 v-4.5 z" fill="url(#s)" stroke="rgba(255,255,255,0.28)" stroke-width="0.8"/>
  <path d="M33.9 26.9 l1.6 1.6 2.9 -3.3" stroke="url(#c)" stroke-width="1.8" stroke-linecap="round" stroke-linejoin="round" fill="none"/>
  <circle cx="32" cy="32" r="29.5" stroke="url(#r)" stroke-width="1.7"/>
</svg>